<mxfile host="app.diagrams.net" modified="2024-03-22T12:19:14.828Z" agent="Mozilla/5.0 (Windows NT 10.0; Win64; x64) AppleWebKit/537.36 (KHTML, like Gecko) Chrome/122.0.0.0 Safari/537.36" etag="T9hG2kjtJESNh_a1JeVQ" version="24.0.7" type="device">
  <diagram name="Page-1" id="ivpaIjfLXvQ2LyikgAgg">
    <mxGraphModel dx="1050" dy="565" grid="1" gridSize="10" guides="1" tooltips="1" connect="1" arrows="1" fold="1" page="1" pageScale="1" pageWidth="850" pageHeight="1100" math="0" shadow="0">
      <root>
        <mxCell id="0" />
        <mxCell id="1" parent="0" />
        <mxCell id="3jKwTpVPiqTmw3kSmsFg-5" value="" style="shape=cylinder3;whiteSpace=wrap;html=1;boundedLbl=1;backgroundOutline=1;size=15;rotation=-90;fillColor=#f5f5f5;gradientColor=#b3b3b3;strokeColor=#666666;" vertex="1" parent="1">
          <mxGeometry x="265" y="110" width="60" height="330" as="geometry" />
        </mxCell>
        <mxCell id="3jKwTpVPiqTmw3kSmsFg-6" value="" style="ellipse;whiteSpace=wrap;html=1;aspect=fixed;fillColor=#ffcd28;strokeColor=#d79b00;gradientColor=#ffa500;" vertex="1" parent="1">
          <mxGeometry x="170" y="260" width="30" height="30" as="geometry" />
        </mxCell>
        <mxCell id="3jKwTpVPiqTmw3kSmsFg-7" value="" style="ellipse;whiteSpace=wrap;html=1;aspect=fixed;fillColor=#ffcd28;strokeColor=#d79b00;gradientColor=#ffa500;" vertex="1" parent="1">
          <mxGeometry x="210" y="260" width="30" height="30" as="geometry" />
        </mxCell>
        <mxCell id="3jKwTpVPiqTmw3kSmsFg-8" value="" style="ellipse;whiteSpace=wrap;html=1;aspect=fixed;fillColor=#ffcd28;strokeColor=#d79b00;gradientColor=#ffa500;" vertex="1" parent="1">
          <mxGeometry x="250" y="260" width="30" height="30" as="geometry" />
        </mxCell>
        <mxCell id="3jKwTpVPiqTmw3kSmsFg-9" value="" style="ellipse;whiteSpace=wrap;html=1;aspect=fixed;fillColor=#ffcd28;strokeColor=#d79b00;gradientColor=#ffa500;" vertex="1" parent="1">
          <mxGeometry x="290" y="260" width="30" height="30" as="geometry" />
        </mxCell>
        <mxCell id="3jKwTpVPiqTmw3kSmsFg-10" value="" style="ellipse;whiteSpace=wrap;html=1;aspect=fixed;fillColor=#ffcd28;strokeColor=#d79b00;gradientColor=#ffa500;" vertex="1" parent="1">
          <mxGeometry x="330" y="260" width="30" height="30" as="geometry" />
        </mxCell>
        <mxCell id="3jKwTpVPiqTmw3kSmsFg-11" value="" style="ellipse;whiteSpace=wrap;html=1;aspect=fixed;fillColor=#ffcd28;strokeColor=#d79b00;gradientColor=#ffa500;" vertex="1" parent="1">
          <mxGeometry x="370" y="260" width="30" height="30" as="geometry" />
        </mxCell>
        <mxCell id="3jKwTpVPiqTmw3kSmsFg-12" value="" style="ellipse;whiteSpace=wrap;html=1;aspect=fixed;fillColor=#ffcd28;strokeColor=#d79b00;gradientColor=#ffa500;" vertex="1" parent="1">
          <mxGeometry x="410" y="260" width="30" height="30" as="geometry" />
        </mxCell>
        <mxCell id="3jKwTpVPiqTmw3kSmsFg-13" value="arrival rate" style="text;html=1;align=center;verticalAlign=middle;whiteSpace=wrap;rounded=0;fontStyle=1" vertex="1" parent="1">
          <mxGeometry x="60" y="320" width="60" height="30" as="geometry" />
        </mxCell>
        <mxCell id="3jKwTpVPiqTmw3kSmsFg-14" value="&lt;b&gt;execution time&lt;/b&gt;" style="rounded=1;whiteSpace=wrap;html=1;fillColor=#dae8fc;gradientColor=#7ea6e0;strokeColor=#6c8ebf;" vertex="1" parent="1">
          <mxGeometry x="520" y="245" width="120" height="60" as="geometry" />
        </mxCell>
        <mxCell id="3jKwTpVPiqTmw3kSmsFg-18" value="departure rate" style="text;html=1;align=center;verticalAlign=middle;whiteSpace=wrap;rounded=0;fontStyle=1" vertex="1" parent="1">
          <mxGeometry x="705" y="320" width="60" height="30" as="geometry" />
        </mxCell>
        <mxCell id="3jKwTpVPiqTmw3kSmsFg-19" value="" style="ellipse;whiteSpace=wrap;html=1;aspect=fixed;fillColor=#d5e8d4;strokeColor=#82b366;gradientColor=#97d077;" vertex="1" parent="1">
          <mxGeometry x="700" y="245" width="30" height="30" as="geometry" />
        </mxCell>
        <mxCell id="3jKwTpVPiqTmw3kSmsFg-20" value="" style="ellipse;whiteSpace=wrap;html=1;aspect=fixed;fillColor=#d5e8d4;strokeColor=#82b366;gradientColor=#97d077;" vertex="1" parent="1">
          <mxGeometry x="740" y="245" width="30" height="30" as="geometry" />
        </mxCell>
        <mxCell id="3jKwTpVPiqTmw3kSmsFg-21" value="" style="ellipse;whiteSpace=wrap;html=1;aspect=fixed;fillColor=#d5e8d4;strokeColor=#82b366;gradientColor=#97d077;" vertex="1" parent="1">
          <mxGeometry x="720" y="275" width="30" height="30" as="geometry" />
        </mxCell>
        <mxCell id="3jKwTpVPiqTmw3kSmsFg-22" value="" style="shape=singleArrow;whiteSpace=wrap;html=1;arrowWidth=0.49333394368489586;arrowSize=0.4079998779296875;fillColor=#f5f5f5;strokeColor=#666666;fontColor=#333333;" vertex="1" parent="1">
          <mxGeometry x="650" y="262.5" width="40" height="25" as="geometry" />
        </mxCell>
        <mxCell id="3jKwTpVPiqTmw3kSmsFg-23" value="" style="shape=singleArrow;whiteSpace=wrap;html=1;arrowWidth=0.49333394368489586;arrowSize=0.4079998779296875;fillColor=#f5f5f5;strokeColor=#666666;fontColor=#333333;" vertex="1" parent="1">
          <mxGeometry x="470" y="262.5" width="40" height="25" as="geometry" />
        </mxCell>
        <mxCell id="3jKwTpVPiqTmw3kSmsFg-24" value="" style="shape=singleArrow;whiteSpace=wrap;html=1;arrowWidth=0.49333394368489586;arrowSize=0.4079998779296875;fillColor=#f5f5f5;strokeColor=#666666;fontColor=#333333;" vertex="1" parent="1">
          <mxGeometry x="70" y="262.5" width="40" height="25" as="geometry" />
        </mxCell>
        <mxCell id="3jKwTpVPiqTmw3kSmsFg-25" value="latency" style="text;html=1;align=center;verticalAlign=middle;whiteSpace=wrap;rounded=0;fontStyle=1" vertex="1" parent="1">
          <mxGeometry x="275" y="320" width="60" height="30" as="geometry" />
        </mxCell>
      </root>
    </mxGraphModel>
  </diagram>
</mxfile>
